<svg xmlns="http://www.w3.org/2000/svg" xmlns:xlink="http://www.w3.org/1999/xlink" width="24" height="24" preserveAspectRatio="xMidYMid meet" viewBox="0 0 24 24" style="-ms-transform: rotate(360deg); -webkit-transform: rotate(360deg); transform: rotate(360deg);"><path d="M21 18.5h-6.18A3 3 0 0 0 13 16.68V13.5h3.17a4.33 4.33 0 0 0 1.3-8.5A6 6 0 0 0 6.06 6.63A3.5 3.5 0 0 0 7 13.5h4v3.18a3 3 0 0 0-1.82 1.82H3a1 1 0 0 0 0 2h6.18a3 3 0 0 0 5.64 0H21a1 1 0 0 0 0-2zm-14-7a1.5 1.5 0 0 1 0-3a1 1 0 0 0 1-1a4 4 0 0 1 7.79-1.29a1 1 0 0 0 .78.67a2.31 2.31 0 0 1 1.93 2.29a2.34 2.34 0 0 1-2.33 2.33zm5 9a1 1 0 1 1 1-1a1 1 0 0 1-1 1z" fill="#404040"/><rect x="0" y="0" width="24" height="24" fill="rgba(0, 0, 0, 0)" /></svg>