<svg xmlns="http://www.w3.org/2000/svg" xmlns:xlink="http://www.w3.org/1999/xlink" width="1em" height="1em" preserveAspectRatio="xMidYMid meet" viewBox="0 0 24 24" style="-ms-transform: rotate(360deg); -webkit-transform: rotate(360deg); transform: rotate(360deg);"><path d="M14.5 22v-3a1 1 0 0 0-1-1h-3a1 1 0 0 0-1 1v3h-4V5a3 3 0 0 1 3-3h7a3 3 0 0 1 3 3v17h-4zm-5-16a1 1 0 1 0 0 2h1a1 1 0 1 0 0-2h-1zm0 3a1 1 0 1 0 0 2h1a1 1 0 1 0 0-2h-1zm0 3a1 1 0 0 0 0 2h1a1 1 0 0 0 0-2h-1zm0 3a1 1 0 0 0 0 2h1a1 1 0 0 0 0-2h-1zm4-9a1 1 0 1 0 0 2h1a1 1 0 1 0 0-2h-1zm0 3a1 1 0 1 0 0 2h1a1 1 0 1 0 0-2h-1zm0 3a1 1 0 0 0 0 2h1a1 1 0 0 0 0-2h-1zm0 3a1 1 0 0 0 0 2h1a1 1 0 0 0 0-2h-1z" fill="black"/></svg>