<svg xmlns="http://www.w3.org/2000/svg" xmlns:xlink="http://www.w3.org/1999/xlink" width="24" height="24" preserveAspectRatio="xMidYMid meet" viewBox="0 0 24 24" style="-ms-transform: rotate(360deg); -webkit-transform: rotate(360deg); transform: rotate(360deg);"><path d="M15.09 12L12 14.08v.01L8.91 12L12 9.92L15.09 12M12 2a.93.93 0 0 0-.47.15L2.5 8.11c-.23.11-.41.32-.5.56v6.25c0 .41 0 .41.15.61l9.38 6.33c.14.1.31.14.47.14c.16 0 .33-.05.47-.15l9.38-6.35c.15-.17.15-.17.15-.58V8.67a1.04 1.04 0 0 0-.5-.57l-9.03-5.95A.843.843 0 0 0 12 2m4.58 11l3.01 2.04l-6.76 4.56v-4.07L16.58 13m3.11-4.1L16.58 11l-3.75-2.53V4.38l6.86 4.52m.64 1.57v3.06L18.07 12l2.26-1.53M7.42 13l3.75 2.54v4.06l-6.76-4.56L7.42 13M4.31 8.9l6.86-4.51V8.5L7.42 11L4.31 8.9m-.64 1.6L5.93 12l-2.26 1.54V10.5z" fill="#404040"/><rect x="0" y="0" width="24" height="24" fill="rgba(0, 0, 0, 0)" /></svg>