<svg xmlns="http://www.w3.org/2000/svg" xmlns:xlink="http://www.w3.org/1999/xlink" width="24" height="24" preserveAspectRatio="xMidYMid meet" viewBox="0 0 24 24" style="-ms-transform: rotate(360deg); -webkit-transform: rotate(360deg); transform: rotate(360deg);"><path d="M14 9h-4a1 1 0 0 0-1 1v4a1 1 0 0 0 1 1h4a1 1 0 0 0 1-1v-4a1 1 0 0 0-1-1zm-1 4h-2v-2h2zm8 0a1 1 0 0 0 0-2h-2V9h2a1 1 0 0 0 0-2h-2.18A3 3 0 0 0 17 5.18V3a1 1 0 0 0-2 0v2h-2V3a1 1 0 0 0-2 0v2H9V3a1 1 0 0 0-2 0v2.18A3 3 0 0 0 5.18 7H3a1 1 0 0 0 0 2h2v2H3a1 1 0 0 0 0 2h2v2H3a1 1 0 0 0 0 2h2.18A3 3 0 0 0 7 18.82V21a1 1 0 0 0 2 0v-2h2v2a1 1 0 0 0 2 0v-2h2v2a1 1 0 0 0 2 0v-2.18A3 3 0 0 0 18.82 17H21a1 1 0 0 0 0-2h-2v-2zm-4 3a1 1 0 0 1-1 1H8a1 1 0 0 1-1-1V8a1 1 0 0 1 1-1h8a1 1 0 0 1 1 1z" fill="#C0C0C0"/><rect x="0" y="0" width="24" height="24" fill="rgba(0, 0, 0, 0)" /></svg>