<svg xmlns="http://www.w3.org/2000/svg" xmlns:xlink="http://www.w3.org/1999/xlink" width="1em" height="1em" preserveAspectRatio="xMidYMid meet" viewBox="0 0 16 16" style="-ms-transform: rotate(360deg); -webkit-transform: rotate(360deg); transform: rotate(360deg);"><path fill="black" d="M12 0H5v6h.7l.2.7l.1.1V1h5v4h4v9H9l.3.5l-.5.5H16V4l-4-4zm0 4V1l3 3h-3z"/><path fill="black" d="M5.5 11.5a1 1 0 1 1-2 0a1 1 0 0 1 2 0z"/><path fill="black" d="M7.9 12.4L9 12v-1l-1.1-.4c-.1-.3-.2-.6-.4-.9l.5-1l-.7-.7l-1 .5c-.3-.2-.6-.3-.9-.4L5 7H4l-.4 1.1c-.3.1-.6.2-.9.4l-1-.5l-.7.7l.5 1.1c-.2.3-.3.6-.4.9L0 11v1l1.1.4c.1.3.2.6.4.9l-.5 1l.7.7l1.1-.5c.3.2.6.3.9.4L4 16h1l.4-1.1c.3-.1.6-.2.9-.4l1 .5l.7-.7l-.5-1.1c.2-.2.3-.5.4-.8zm-3.4 1.1c-1.1 0-2-.9-2-2s.9-2 2-2s2 .9 2 2s-.9 2-2 2z"/></svg>